<svg width="103" height="35" viewBox="0 -1 103 36" fill="none" xmlns="http://www.w3.org/2000/svg">
<path d="M7.02273 28.2727C5.7197 28.2727 4.53409 27.9356 3.46591 27.2614C2.4053 26.5795 1.56061 25.572 0.931818 24.2386C0.310606 22.9053 0 21.2538 0 19.2841C0 17.2614 0.32197 15.5871 0.965909 14.2614C1.61742 12.9356 2.47348 11.947 3.53409 11.2955C4.60227 10.6439 5.75758 10.3182 7 10.3182C7.94697 10.3182 8.74621 10.4811 9.39773 10.8068C10.0568 11.125 10.5909 11.5303 11 12.0227C11.4167 12.5076 11.7348 13.0038 11.9545 13.5114H12.0909V4.72727H17.2841V28H12.1477V25.1932H11.9545C11.7273 25.7008 11.4015 26.1894 10.9773 26.6591C10.553 27.1288 10.0152 27.5152 9.36364 27.8182C8.71212 28.1212 7.93182 28.2727 7.02273 28.2727ZM8.75 24.1705C9.47727 24.1705 10.0947 23.9697 10.6023 23.5682C11.1174 23.1591 11.5114 22.5909 11.7841 21.8636C12.0568 21.1288 12.1932 20.2652 12.1932 19.2727C12.1932 18.2803 12.0568 17.4205 11.7841 16.6932C11.5189 15.9659 11.1288 15.4053 10.6136 15.0114C10.1061 14.6098 9.48485 14.4091 8.75 14.4091C8.00758 14.4091 7.38258 14.6136 6.875 15.0227C6.36742 15.4242 5.98106 15.9924 5.71591 16.7273C5.45076 17.4545 5.31818 18.303 5.31818 19.2727C5.31818 20.25 5.45076 21.1061 5.71591 21.8409C5.98106 22.5758 6.36742 23.1477 6.875 23.5568C7.39015 23.9659 8.01515 24.1705 8.75 24.1705Z" fill="#000000"/>
<path d="M23.7344 28.3182C22.6208 28.3182 21.6284 28.125 20.7572 27.7386C19.8935 27.3523 19.2117 26.7765 18.7117 26.0114C18.2193 25.2462 17.9731 24.2879 17.9731 23.1364C17.9731 22.1742 18.1435 21.3636 18.4844 20.7045C18.8329 20.0379 19.3102 19.5 19.9163 19.0909C20.5223 18.6818 21.2155 18.3712 21.9958 18.1591C22.7837 17.947 23.6132 17.7992 24.4844 17.7159C25.492 17.625 26.3026 17.5303 26.9163 17.4318C27.5299 17.3333 27.9731 17.1894 28.2458 17C28.5261 16.803 28.6663 16.5227 28.6663 16.1591V16.1023C28.6663 15.4432 28.4541 14.9356 28.0299 14.5795C27.6056 14.2235 27.0147 14.0455 26.2572 14.0455C25.4541 14.0455 24.8102 14.2235 24.3253 14.5795C23.8481 14.928 23.5413 15.3864 23.4049 15.9545L18.5981 15.6818C18.7875 14.6212 19.2079 13.6894 19.8594 12.8864C20.5109 12.0758 21.3784 11.447 22.4617 11C23.545 10.5455 24.8253 10.3182 26.3026 10.3182C27.3405 10.3182 28.3178 10.4394 29.2344 10.6818C30.1511 10.9242 30.9541 11.2917 31.6435 11.7841C32.3405 12.2689 32.8859 12.8788 33.2799 13.6136C33.6738 14.3409 33.8708 15.197 33.8708 16.1818V28H28.9617V25.5682H28.8253C28.5223 26.1439 28.1322 26.6364 27.6549 27.0455C27.1852 27.4545 26.6208 27.7689 25.9617 27.9886C25.3102 28.2083 24.5678 28.3182 23.7344 28.3182ZM25.2913 24.8182C25.9428 24.8182 26.5261 24.6894 27.0413 24.4318C27.5564 24.1667 27.9617 23.8068 28.2572 23.3523C28.5526 22.8902 28.7003 22.3636 28.7003 21.7727V20.0227C28.5488 20.1136 28.3519 20.197 28.1094 20.2727C27.867 20.3485 27.5981 20.4167 27.3026 20.4773C27.0072 20.5379 26.7079 20.5947 26.4049 20.6477C26.1019 20.6932 25.8216 20.7348 25.564 20.7727C25.0109 20.8485 24.5375 20.9773 24.1435 21.1591C23.7496 21.3409 23.4466 21.5795 23.2344 21.875C23.0223 22.1629 22.9163 22.5152 22.9163 22.9318C22.9163 23.5455 23.1359 24.0152 23.5753 24.3409C24.0223 24.6591 24.5943 24.8182 25.2913 24.8182Z" fill="#000000"/>
<path d="M37.7757 34.5455C37.1317 34.5455 36.5295 34.4962 35.9689 34.3977C35.4083 34.2992 34.9348 34.1742 34.5484 34.0227L35.7075 30.1932C36.2605 30.3674 36.7605 30.4659 37.2075 30.4886C37.662 30.5189 38.0522 30.4318 38.378 30.2273C38.7113 30.0303 38.9764 29.6894 39.1734 29.2045L39.412 28.5682L33.1848 10.5455H38.6393L42.0598 23.1818H42.2416L45.6848 10.5455H51.1734L44.503 29.7841C44.1772 30.7235 43.7302 31.553 43.162 32.2727C42.5939 32.9924 41.8704 33.5492 40.9916 33.9432C40.1128 34.3447 39.0408 34.5455 37.7757 34.5455Z" fill="#000000"/>
<path d="M56.4419 4.72727V28H51.2487V4.72727H56.4419Z" fill="#000000"/>
<path d="M65.9264 28.3295C64.1309 28.3295 62.5817 27.9545 61.2786 27.2045C59.9832 26.4545 58.9832 25.4053 58.2786 24.0568C57.5741 22.7008 57.2218 21.125 57.2218 19.3295C57.2218 17.5341 57.5741 15.9621 58.2786 14.6136C58.9832 13.2576 59.9832 12.2045 61.2786 11.4545C62.5817 10.697 64.1309 10.3182 65.9264 10.3182C67.7218 10.3182 69.2673 10.697 70.5627 11.4545C71.8658 12.2045 72.8695 13.2576 73.5741 14.6136C74.2786 15.9621 74.6309 17.5341 74.6309 19.3295C74.6309 21.125 74.2786 22.7008 73.5741 24.0568C72.8695 25.4053 71.8658 26.4545 70.5627 27.2045C69.2673 27.9545 67.7218 28.3295 65.9264 28.3295ZM65.9605 24.3636C66.6877 24.3636 67.3014 24.1477 67.8014 23.7159C68.3089 23.2841 68.6915 22.6894 68.9491 21.9318C69.2067 21.1667 69.3355 20.2879 69.3355 19.2955C69.3355 18.303 69.2067 17.428 68.9491 16.6705C68.6915 15.9129 68.3089 15.3182 67.8014 14.8864C67.3014 14.447 66.6877 14.2273 65.9605 14.2273C65.2105 14.2273 64.5779 14.447 64.0627 14.8864C63.5476 15.3182 63.1612 15.9129 62.9036 16.6705C62.6461 17.428 62.5173 18.303 62.5173 19.2955C62.5173 20.2879 62.6461 21.1667 62.9036 21.9318C63.1612 22.6894 63.5476 23.2841 64.0627 23.7159C64.5779 24.1477 65.2105 24.3636 65.9605 24.3636Z" fill="#000000"/>
<path d="M83.3938 34.9091C81.7801 34.9091 80.3975 34.6856 79.246 34.2386C78.0945 33.7917 77.1854 33.1856 76.5188 32.4205C75.8521 31.6553 75.4354 30.7879 75.2688 29.8182L80.1438 29.3636C80.2574 29.7197 80.4544 30.0379 80.7347 30.3182C81.015 30.6061 81.3862 30.8295 81.8483 30.9886C82.3104 31.1553 82.8672 31.2386 83.5188 31.2386C84.5112 31.2386 85.3294 30.9962 85.9733 30.5114C86.6248 30.0341 86.9506 29.2197 86.9506 28.0682V24.9318H86.7574C86.5377 25.4394 86.2081 25.9091 85.7688 26.3409C85.3369 26.7652 84.7877 27.1098 84.121 27.375C83.4619 27.6326 82.6854 27.7614 81.7915 27.7614C80.496 27.7614 79.3142 27.4621 78.246 26.8636C77.1854 26.2576 76.3407 25.3258 75.7119 24.0682C75.0832 22.8106 74.7688 21.2045 74.7688 19.25C74.7688 17.2348 75.0907 15.5682 75.7347 14.25C76.3862 12.9242 77.2422 11.9394 78.3028 11.2955C79.371 10.6439 80.5263 10.3182 81.7688 10.3182C82.7157 10.3182 83.5188 10.4811 84.1778 10.8068C84.8369 11.125 85.371 11.5303 85.7801 12.0227C86.1968 12.5076 86.515 13.0038 86.7347 13.5114H86.9165V10.5455H92.0869V28.1136C92.0869 29.5985 91.7157 30.8447 90.9733 31.8523C90.2384 32.8598 89.2157 33.6212 87.9051 34.1364C86.6021 34.6515 85.0983 34.9091 83.3938 34.9091ZM83.5188 23.9205C84.246 23.9205 84.8634 23.7348 85.371 23.3636C85.8862 22.9848 86.2801 22.447 86.5528 21.75C86.8256 21.053 86.9619 20.2121 86.9619 19.2273C86.9619 18.25 86.8256 17.4015 86.5528 16.6818C86.2877 15.9545 85.8975 15.3939 85.3824 15C84.8748 14.6061 84.2536 14.4091 83.5188 14.4091C82.7763 14.4091 82.1513 14.6136 81.6438 15.0227C81.1362 15.4242 80.7498 15.9886 80.4847 16.7159C80.2195 17.4356 80.0869 18.2727 80.0869 19.2273C80.0869 20.197 80.2195 21.0341 80.4847 21.7386C80.7498 22.4356 81.1362 22.9735 81.6438 23.3523C82.1589 23.7311 82.7839 23.9205 83.5188 23.9205Z" fill="#000000"/>
<path d="M102.773 6C102.773 9.31371 100.086 12 96.7727 12C93.459 12 90.7727 9.31371 90.7727 6C90.7727 2.68629 93.459 0 96.7727 0C100.086 0 102.773 2.68629 102.773 6Z" fill="#000000"/>
</svg>
