<svg width="180" height="180" viewBox="10 18 160 144" fill="none" xmlns="http://www.w3.org/2000/svg">
<path d="M101.444 42.2732V156.753H69.8893V150.903C67.8542 152.764 65.4801 154.307 62.8053 155.549C59.1693 157.236 54.9873 158 50.3864 158C43.6823 158 37.5021 156.258 31.944 152.758L31.9303 152.749L31.9157 152.74C26.3209 149.152 21.9879 143.915 18.8385 137.253L18.8346 137.244L18.8297 137.235C15.6648 130.457 14.1813 122.283 14.1813 112.875C14.1813 103.227 15.716 94.9182 19.0143 88.1433L19.0182 88.1355L19.0221 88.1267C22.2812 81.5101 26.6789 76.3579 32.2985 72.9138L32.3092 72.907C37.8298 69.5477 43.8462 67.8534 50.2819 67.8533C55.0427 67.8533 59.3402 68.6654 63.0124 70.4851H63.0133C65.5087 71.687 67.7263 73.1593 69.6286 74.9167V42.2732H101.444ZM58.3073 94.5701C55.6801 94.5701 53.7345 95.2734 52.2155 96.4949L52.2018 96.5066L52.1872 96.5173C50.5552 97.8053 49.1698 99.7308 48.1549 102.537L48.151 102.55C47.1306 105.342 46.57 108.741 46.57 112.823C46.57 116.942 47.1307 120.381 48.1549 123.213C49.1663 126.009 50.5504 127.959 52.193 129.288C53.765 130.533 55.7267 131.231 58.3073 131.231C60.8616 131.231 62.7897 130.546 64.3239 129.336C66.0196 127.99 67.4369 126.037 68.4772 123.269C69.5213 120.457 70.0973 117.002 70.0973 112.823C70.0973 108.636 69.5191 105.2 68.4772 102.427L68.4704 102.411L68.4645 102.393C67.4596 99.6434 66.0746 97.7623 64.4274 96.5056L64.402 96.4861L64.3756 96.4656C62.8489 95.2608 60.907 94.5701 58.3073 94.5701Z" fill="#000000" stroke="#ffffff" stroke-width="8"/>
<ellipse cx="57.6883" cy="112.606" rx="12.1935" ry="17.5587" fill="#ffffff"/>
<path d="M134.304 21.9999C151.7 22.0001 165.818 36.0724 165.819 53.451C165.819 70.8299 151.7 84.903 134.304 84.9032C116.907 84.9032 102.788 70.83 102.788 53.451C102.789 36.0723 116.908 21.9999 134.304 21.9999Z" fill="#000000" stroke="#ffffff" stroke-width="8"/>
</svg>
